<?xml version="1.0" encoding="UTF-8" standalone="no"?>
<!-- Created with Inkscape (http://www.inkscape.org/) -->

<svg
   xmlns:dc="http://purl.org/dc/elements/1.1/"
   xmlns:cc="http://creativecommons.org/ns#"
   xmlns:rdf="http://www.w3.org/1999/02/22-rdf-syntax-ns#"
   xmlns:svg="http://www.w3.org/2000/svg"
   xmlns="http://www.w3.org/2000/svg"
   xmlns:sodipodi="http://sodipodi.sourceforge.net/DTD/sodipodi-0.dtd"
   xmlns:inkscape="http://www.inkscape.org/namespaces/inkscape"
   width="900"
   height="900"
   version="1.1"
   inkscape:version="0.92.4 (unknown)"
   sodipodi:docname="board.svg">
  <metadata>
    <rdf:RDF>
      <cc:Work
         rdf:about="">
        <dc:format>image/svg+xml</dc:format>
        <dc:type rdf:resource="http://purl.org/dc/dcmitype/StillImage"/>
        <dc:title/>
      </cc:Work>
    </rdf:RDF>
  </metadata>
  <g
      inkscape:groupmode="layer"
      transform="translate(0,-152.3622)">
    <path
        style="fill:#023914;fill-opacity:1;stroke:none"
        d="m 5,192.36213 c 0,-19.95535 15,-35 35,-35 20,0 800,0 820,0 20,0 35,15 35,35 0,20 0,800 0,820 0,20 -15,37 -35,37 -20,0 -800,0 -820,0 -20,0 -35,-17 -35,-37 0,-20 0,-803.50081 0,-820 z"
        inkscape:connector-curvature="0"
        sodipodi:nodetypes="sssssssss"/>
    <path
        style="fill:none;stroke:#042504;stroke-width:5.00017738;stroke-linecap:butt;stroke-linejoin:miter;stroke-miterlimit:4;stroke-opacity:1;stroke-dasharray:none"
        d="m 5,952.3623 h 890 m -890,-100 h 890 m -890,-100 h 890 m -890,-100 H 895 M 5,552.36233 H 895 M 5,452.36213 h 890 m -890,-100 h 890 m -890,-100 H 895 M 800,157.3623 c 0,165 0,890 0,890 m -100,-890 c 0,165 0,890 0,890 m -100,-890 c 0,165 0,890 0,890 m -100,-890 c 0,165 0,890 0,890 M 400,157.36184 c 0,165 0,890 0,890 M 300,157.36224 c 0,165 0,890 0,890 M 200,157.36204 c 0,165 0,890 0,890 M 100,157.36213 c 0,165 0,890 0,890" />
    <path
        style="fill:none;stroke:#65391b;stroke-width:6;stroke-linecap:butt;stroke-linejoin:miter;stroke-miterlimit:4;stroke-opacity:1;stroke-dasharray:none"
        d="m 3,192.36218 c 0,-19.9554 17,-37 37,-37 20,0 800,0 820,0 20,0 37,17 37,37 0,20 0,800 0,820 0,20 -17,37 -37,37 -20,0 -800,0 -820,0 -20,0 -37,-17 -37,-37 0,-20 0,-803.5 0,-820 z"
        inkscape:connector-curvature="0"
        sodipodi:nodetypes="sssssssss"/>
  </g>
</svg>
