<?xml version="1.0" encoding="utf-8" standalone="no"?>
<svg version="1.1" width="900" height="900" xmlns="http://www.w3.org/2000/svg">
  <rect style="fill:none;opacity:0" width="900" height="900"/>
  <path style="fill:#023914" d="M 5,39 C 5,19 20,4 40,4 c 20,0 800,0 820,0 20,0 35,15 35,35 0,20 0,800 0,820 0,20 -15,37 -35,37 -20,0 -800,0 -820,0 C 20,896 5,879 5,859 5,839 5,55.5 5,39 z"/>
  <path style="stroke:#042504;stroke-width:5" d="m 5,800 h 890 m -890,-100 h 890 m -890,-100 h 890 m -890,-100 H 895 M 5,400 H 895 M 5,300 h 890 m -890,-100 h 890 m -890,-100 H 895 M 800,5 c 0,165 0,890 0,890 m -100,-890 c 0,165 0,890 0,890 m -100,-890 c 0,165 0,890 0,890 m -100,-890 c 0,165 0,890 0,890 M 400,5 c 0,165 0,890 0,890 M 300,5 c 0,165 0,890 0,890 M 200,5 c 0,165 0,890 0,890 M 100,5 c 0,165 0,890 0,890 z"/>
  <path style="fill:none;stroke:#65391b;stroke-width:6" d="M 3,40 C 3,20 20,3 40,3 c 20,0 800,0 820,0 20,0 37,17 37,37 0,20 0,800 0,820 0,20 -17,37 -37,37 -20,0 -800,0 -820,0 C 20,897 3,880 3,860 3,840 3,56.5 3,40 z"/>
</svg>
