<?xml version="1.0" encoding="utf-8" standalone="no"?>
<svg version="1.1" width="100" height="100" xmlns="http://www.w3.org/2000/svg">
  <rect style="fill:none;opacity:0" width="100" height="100"/>
  <path style="opacity:0.9;fill:none;stroke:#ffffff;stroke-width:5" d="m 36.1,2.5 c -0.71,0 -1.42,0.15 -2.12,0.43 L 28.02,5.39 c -2.68,1.11 -4.05,4.42 -2.93,7.12 l 1.39,3.37 c 0.36,0.86 0.34,1.78 0,2.6 -0.21,0.51 -0.55,0.98 -1.01,1.35 -2.07,1.68 -3.99,3.6 -5.68,5.67 -0.96,1.18 -2.59,1.59 -3.99,1.01 L 12.49,25.1 C 9.71,23.95 6.52,25.26 5.37,28.03 l -2.45,5.96 c -1.15,2.77 0.16,5.97 2.93,7.12 l 3.37,1.39 c 1.4,0.58 2.23,2 2.07,3.51 -0.28,2.66 -0.28,5.33 0,7.98 0.16,1.51 -0.67,2.93 -2.07,3.51 l -3.37,1.39 c -2.68,1.11 -4.04,4.43 -2.93,7.12 l 2.45,5.96 c 1.15,2.77 4.34,4.08 7.12,2.93 l 3.37,-1.39 c 1.4,-0.58 2.99,-0.17 3.94,1.01 1.68,2.07 3.6,3.99 5.68,5.67 1.18,0.96 1.59,2.54 1.01,3.94 l -1.39,3.37 c -1.15,2.77 0.16,5.97 2.93,7.12 l 5.96,2.45 c 2.77,1.15 5.97,-0.16 7.12,-2.93 l 1.39,-3.37 c 0.58,-1.4 2,-2.22 3.51,-2.07 2.66,0.28 5.33,0.28 7.98,0 1.51,-0.16 2.93,0.67 3.51,2.07 l 1.39,3.37 c 1.15,2.77 4.35,4.08 7.12,2.93 l 5.96,-2.45 c 2.69,-1.11 4.04,-4.43 2.93,-7.12 l -1.39,-3.37 c -0.58,-1.4 -0.17,-2.99 1.01,-3.94 2.07,-1.68 3.99,-3.6 5.68,-5.67 0.96,-1.18 2.54,-1.59 3.94,-1.01 l 3.37,1.39 c 2.77,1.15 5.97,-0.16 7.12,-2.93 l 2.45,-5.96 C 98.23,63.25 96.92,60.05 94.15,58.9 L 90.78,57.51 c -1.4,-0.58 -2.23,-2 -2.07,-3.51 0.28,-2.66 0.28,-5.33 0,-7.98 -0.16,-1.51 0.67,-2.93 2.07,-3.51 l 3.37,-1.39 c 2.68,-1.11 4.04,-4.43 2.93,-7.12 l -2.45,-5.96 c -1.15,-2.77 -4.34,-4.08 -7.12,-2.93 l -3.37,1.39 c -1.4,0.58 -2.99,0.17 -3.94,-1.01 -1.68,-2.07 -3.6,-3.99 -5.68,-5.67 -1.18,-0.96 -1.59,-2.54 -1.01,-3.94 l 1.39,-3.37 C 76.06,9.73 74.75,6.53 71.98,5.39 l -5.96,-2.45 C 63.24,1.79 60.05,3.09 58.9,5.87 l -1.39,3.37 c -0.58,1.4 -2,2.22 -3.51,2.07 -2.66,-0.28 -5.33,-0.28 -7.98,0 C 44.5,11.46 43.08,10.63 42.5,9.23 L 41.1,5.87 C 40.24,3.79 38.22,2.52 36.1,2.5 z"/>
  <circle style="fill:none;stroke:#ffffff;stroke-width:2.5;stroke-opacity:0.5" cx="50" cy="50" r="28.75"/>
</svg>
