<?xml version="1.0" encoding="utf-8" standalone="no"?>
<svg version="1.1" width="86px" height="86px" viewBox="0 0 86 86" xmlns="http://www.w3.org/2000/svg" xmlns:xlink="http://www.w3.org/1999/xlink">
  <defs>
    <linearGradient id="linearGradient4838">
      <stop offset="0" style="stop-color:#00ffff"/>
      <stop offset="1" style="stop-color:#008080"/>
    </linearGradient>
    <radialGradient id="XMLID_8_" cx="460.665" cy="95.3286" r="31.06" fx="460.665" fy="95.3286" gradientTransform="matrix(-0.10559643,-0.00990227,0.00518502,-0.05529226,93.842205,77.575099)" gradientUnits="userSpaceOnUse">
      <stop offset="0" stop-color="#ff0000"/>
      <stop offset="0.41" stop-color="#ff0000"/>
      <stop offset="1" stop-color="#b31907"/>
    </radialGradient>
    <radialGradient id="XMLID_9_" cx="759.51" cy="96.99" r="31.06" fx="759.51" fy="96.99" gradientTransform="matrix(-0.1060597,0,0,-0.06566213,94.5499,73.922842)" gradientUnits="userSpaceOnUse">
      <stop offset="0" stop-color="#ff0000"/>
      <stop offset="0.41" stop-color="#ff0000"/>
      <stop offset="1" stop-color="#b31907"/>
    </radialGradient>
    <linearGradient id="Bashka_2_" gradientUnits="userSpaceOnUse" x1="452.0195" y1="457.6514" x2="688.127" y2="166.077" gradientTransform="matrix(-0.11949506,0,0,-0.09767958,99.124188,75.964196)">
      <stop offset="0" stop-color="#ff0000"/>
      <stop offset="1" stop-color="#803200"/>
    </linearGradient>
    <linearGradient id="XMLID_3_" gradientUnits="userSpaceOnUse" x1="692.26" y1="347.08" x2="793.7" y2="245.64" gradientTransform="matrix(-0.10450261,0,0,-0.10450261,93.487046,78.148096)">
      <stop offset="0" stop-color="#b60000"/>
      <stop offset="1" stop-color="#fa3200"/>
    </linearGradient>
    <radialGradient xlink:href="#linearGradient4838" id="radialGradient4854" cx="47.308" cy="44.15" fx="47.308" fy="44.15" r="42.7" gradientUnits="userSpaceOnUse" gradientTransform="matrix(-1.3418164,0.00919172,-0.00935448,-1.3656217,100.79351,101.30028)"/>
    <radialGradient id="XMLID_5_-4" cx="500.56" cy="425.97" r="25.628" fx="500.56" fy="425.97" gradientTransform="matrix(-1,0,0,-1,837.1769,657.1702)" gradientUnits="userSpaceOnUse">
      <stop offset="0" stop-color="#ffffff"/>
      <stop offset="0.0352" stop-color="#ffecec"/>
      <stop offset="0.1445" stop-color="#ffb5b5"/>
      <stop offset="0.2576" stop-color="#ff8585"/>
      <stop offset="0.3722" stop-color="#ff5c5c"/>
      <stop offset="0.4887" stop-color="#ff3b3b"/>
      <stop offset="0.6076" stop-color="#ff2121"/>
      <stop offset="0.73" stop-color="#ff0e0e"/>
      <stop offset="0.8577" stop-color="#ff0404"/>
      <stop offset="1" stop-color="#ff0000"/>
    </radialGradient>
    <linearGradient id="linearGradient5566-8">
      <stop offset="0" style="stop-color:#808000;stop-opacity:1;"/>
      <stop offset="1" style="stop-color:#808000;stop-opacity:0;"/>
    </linearGradient>
    <linearGradient id="XMLID_4_-5" gradientUnits="userSpaceOnUse" x1="183.46" y1="483.97" x2="553.135" y2="483.973" gradientTransform="matrix(-0.09113673,0.05114358,-0.05114358,-0.09113673,120.79506,60.317271)">
      <stop offset="0" stop-color="#d4d400"/>
      <stop offset="1" stop-color="#fcff00"/>
    </linearGradient>
    <linearGradient xlink:href="#XMLID_4_-5" id="linearGradient5771" gradientUnits="userSpaceOnUse" gradientTransform="matrix(-0.0913557,0.05074879,-0.05126646,-0.09043322,115.08297,56.144165)" x1="183.46" y1="483.97" x2="553.135" y2="483.973"/>
    <radialGradient xlink:href="#linearGradient5566-8" id="radialGradient5773" gradientUnits="userSpaceOnUse" gradientTransform="matrix(0.16189021,-0.00931874,0.02186218,0.37591315,-159.67415,-86.902737)" cx="651.42" cy="102.86" fx="651.42" fy="102.86" r="20.075"/>
    <linearGradient xlink:href="#XMLID_5_-4" id="linearGradient6400" x1="272.211" y1="239.58" x2="347.01" y2="239.58" gradientUnits="userSpaceOnUse" gradientTransform="matrix(0.11435356,0,0,0.11107638,13.333503,-47.16254)"/>
  </defs>
  <rect style="opacity:0;fill:none" width="86" height="86"/>
  <path style="fill:url(#radialGradient4854)" d="M 84.28 0.3 H 43 C 19.42 0.3 0.3 19.42 0.3 43 v 41.28 c 0 0.79 0.64 1.42 1.42 1.42 H 43 c 23.58 0 42.7 -19.12 42.7 -42.7 V 1.72 C 85.7 0.94 85.06 0.3 84.28 0.3 z"/>
  <g>
    <g>
      <path style="fill:#800000" d="m 22.88 31.8 c 0 0 -0.84 -0.54 -1.68 -1.09 -1.97 -0.88 -4.29 -0.04 -6.1 -1.17 -1.13 -0.66 -1.66 -1.91 -1.7 -3.04 0.03 -1.2 0.42 -2.45 1.32 -3.15 1.82 -1.3 4.38 -1.51 6.21 -0.21 0.49 0.36 0.91 0.82 1.2 1.36 0.29 0.54 0.37 1.16 0.44 1.84 0.12 1.2 -0.35 1.11 -0.81 0.67 -0.71 -0.7 -1.13 -1.1 -1.73 -1.49 -0.8 -0.31 -1.59 -0.72 -2.42 -0.14 -0.56 0.31 -1.45 1.79 0.65 2.93 1.23 0.67 2.77 0.93 3.86 1.58 0.56 0.39 1.42 1 1.42 1"/>
      <g>
        <path style="fill:#b31900" d="m 41.43 60.28 c -1.19 0.75 -3.2 2.82 -3.64 4.14 -0.46 1.78 0.18 2.03 1.88 1.94 2.63 -0.25 7.77 -2.76 9.78 -0.06 1.19 1.5 1.57 3.14 -0.63 3.64 -1.89 0.42 -7.68 0.63 -8.71 0.38 -1.54 -1.43 -1.96 -1.14 -3.82 -0.37 -1.94 0.31 -4.2 0.38 -4.14 -2.13 0.06 -1.19 0.88 -1.5 1.19 -2.57 0.44 -1.32 -0.06 -2.95 -0.06 -4.26"/>
        <path style="fill:#800000" d="m 41.19 59.87 c -0.86 0.55 -1.4 0.91 -2.35 2.04 -0.85 0.85 -1.34 1.54 -1.52 2.43 -0.13 0.65 -0.45 1.75 0.2 2.22 0.67 0.49 1.77 0.33 2.54 0.22 2.73 -0.43 5.49 -1.87 8.23 -0.88 0.77 0.4 1.43 1.02 1.66 1.84 0.31 1.1 -0.94 1.69 -1.77 1.85 -1.42 0.27 -2.86 0.2 -4.29 0.27 -1.2 0.06 -2.46 0.27 -3.65 0 -0.41 -0.1 -0.61 -0.49 -0.86 -0.79 -0.31 -0.37 -0.79 -0.54 -1.26 -0.47 -1.26 0.17 -0.6 0.77 -2.82 0.99 -3.6 0.34 -2.74 -2.17 -2.18 -2.97 0.7 -0.99 0.92 -2 0.85 -3.2 -0.05 -0.82 -0.19 -1.59 -0.22 -2.45 0 0 -0.94 -0.02 -0.94 0 0 1.28 0.42 2.58 0.16 3.85 -0.21 1.02 -1.11 1.67 -1.26 2.71 -0.09 0.61 -0.24 3.15 3.27 3.02 1.07 -0.05 1.93 -0.32 2.82 -0.85 0.43 -0.25 0.72 -0.25 1.02 0.15 0.3 0.4 0.58 0.7 1.05 0.87 1.16 0.31 2.39 0.18 3.58 0.1 1.39 -0.09 2.77 -0.04 4.15 -0.21 1.08 -0.13 2.31 -0.29 3 -1.23 0.52 -0.72 0.41 -1.74 0.05 -2.45 C 49.45 64.52 47.27 64.51 45.92 64.6 c -1.96 0.13 -3.82 0.84 -5.74 1.2 -0.28 0.05 -1.24 0.19 -1.78 0.09 -0.1 -0.01 -0.2 -0.05 -0.3 -0.08 -0.05 -0.87 0.24 -1.61 0.72 -2.31 0.74 -1.07 1.75 -2.11 2.85 -2.82 0 -0.01 -0.48 -0.81 -0.48 -0.81 z"/>
        <ellipse style="fill:url(#XMLID_8_)" cx="45.69" cy="67.74" rx="4.26" ry="2"/>
      </g>
      <g>
        <path style="fill:#b31900" d="m 32.08 61.66 c -1.38 0.19 -3.01 2.88 -3.39 4.08 -0.44 1.19 0.13 3.01 -0.69 4.01 -0.93 0.87 -2.34 0.73 -3.51 0.5 -0.31 -0.19 -0.44 -0.75 -0.88 -0.82 -0.5 -0.06 -0.56 0.38 -0.88 0.56 -1.15 0.51 -2.47 0.33 -3.7 0.31 -2.19 0 -9.53 1.19 -10.03 -2.01 -0.63 -4.01 6.14 -3.76 8.59 -3.45 1.82 0.25 3.32 1.88 5.27 1.13 1.88 -0.69 3.14 -3.2 4.2 -4.7"/>
        <path style="fill:#800000" d="m 31.96 61.21 c -1.61 0.68 -3.08 2.82 -3.57 4.01 -0.71 1.73 0.06 3.43 -0.89 4.4 -0.71 0.44 -1.59 0.29 -2.4 0.3 -0.31 -0 -0.42 -0.13 -0.58 -0.35 -0.32 -0.45 -0.7 -0.65 -1.25 -0.57 -0.43 0.06 -0.63 0.56 -1.02 0.72 -0.56 0.22 -1.26 0.16 -1.84 0.16 -1.6 -0.02 -3.16 0.09 -4.76 0.16 -1.59 0.07 -3.29 0.11 -4.81 -0.42 -1.99 -0.7 -1.36 -2.41 -1.13 -2.8 1.21 -2.09 6.58 -1.69 7.91 -1.48 1.06 0.17 2 0.79 3.01 1.12 1.03 0.33 2.08 0.21 3.02 -0.32 1.77 -0.99 2.65 -2.2 4.02 -4.61 l -1 -0.48 c -1.14 1.62 -2.15 3.96 -4.2 4.58 -1.11 0.34 -2.23 -0.33 -3.21 -0.75 -2.24 -0.96 -5.68 -0.66 -7.04 -0.41 -1.33 0.24 -2.86 0.81 -3.46 2.13 -0.6 1.31 -0.15 2.82 1.07 3.57 1.32 0.8 3.1 0.84 4.59 0.84 1.47 -0 2.93 -0.17 4.4 -0.21 1.16 -0.04 2.33 0.13 3.47 -0.11 0.46 -0.1 0.82 -0.34 1.12 -0.69 0.15 -0.18 0.25 -0.01 0.35 0.13 0.15 0.21 0.29 0.38 0.5 0.54 0.49 0.35 2.78 0.33 3.61 -0.15 1.16 -0.67 1.09 -2.23 1.11 -3.38 0.03 -1.92 1.69 -4.51 3.23 -5.01 -0.03 -0.02 -0.25 -0.91 -0.25 -0.91 z"/>
        <ellipse style="fill:url(#XMLID_9_)" cx="14" cy="67.55" rx="4.26" ry="2"/>
      </g>
      <g>
        <path style="fill:#ff0000" d="m 51.21 41.28 c 3.01 -1.63 6.58 -0.69 9.72 -1.5 1 -0.25 1.19 -0.44 0.19 -1 -0.82 -0.5 -1.82 -0.69 -2.76 -0.94 -1.25 -0.38 -2.63 -0.38 -3.95 -0.75 -0.38 -0.06 -0.82 -0.13 -1.07 -0.38 -0.75 -0.44 -0.38 -0.82 -0.69 -1.38 -0.5 -0.75 -1.5 -0.88 -2.32 -1.32 l 6.32 -4.09 c 1.05 -0.27 1.61 -0.58 2.77 0.07 0.31 0.63 -0.06 1.5 0.19 2.19 0.25 0.75 1 1.44 1.57 1.94 1.44 1.19 2.38 2.82 3.89 4.01 0.75 0.69 1.76 0.82 1.88 1.88 0.13 1.07 -0.56 1.13 -1.44 1.25 -3.7 0.44 -6.83 1.25 -10.28 2.57 -2.51 0.94 -4.77 2.13 -7.21 3.2"/>
        <path style="fill:#800000" d="m 51.45 41.69 c 2.4 -1.27 5.19 -0.9 7.8 -1.15 1.36 -0.13 2.78 -0.41 2.97 -1 0.13 -0.41 -0.18 -0.7 -0.48 -0.93 -1.23 -0.94 -3.87 -1.39 -5.99 -1.72 -0.62 -0.1 -1.26 -0.22 -1.86 -0.4 -0.57 -0.23 -0.58 -0.53 -0.69 -1.07 -0.29 -1.08 -1.65 -1.34 -2.51 -1.75 0 0 5.96 -3.74 5.97 -3.74 0.65 -0.06 1.95 -0.36 2.36 0.31 0.2 0.31 -0.03 0.93 0.06 1.69 0.07 0.62 0.43 1.14 0.82 1.61 0.38 0.46 0.86 0.84 1.3 1.24 0.5 0.45 0.93 0.96 1.37 1.47 0.81 0.94 1.63 1.9 2.66 2.62 0.52 0.36 1.2 0.58 1.27 1.3 0.06 0.69 -0.85 0.63 -1.33 0.69 -1.99 0.25 -3.95 0.63 -5.89 1.16 -1.96 0.54 -3.89 1.23 -5.76 2.02 -1.93 0.82 -3.81 1.76 -5.73 2.61 -0.55 0.24 -0.08 1.05 0.47 0.81 2.69 -1.18 5.31 -2.51 8.08 -3.51 2.63 -0.95 5.33 -1.64 8.09 -2.05 0.81 -0.12 2.28 -0.03 2.8 -0.84 0.53 -0.83 0.08 -1.93 -0.65 -2.45 -0.38 -0.28 -0.81 -0.48 -1.17 -0.79 -0.52 -0.45 -1 -0.91 -1.46 -1.42 -0.86 -0.96 -1.67 -1.91 -2.63 -2.78 -0.46 -0.41 -0.89 -0.85 -1.18 -1.4 -0.29 -0.55 -0.06 -1.25 -0.12 -1.84 -0.11 -1.01 -1 -1.42 -1.91 -1.52 l -8.5 5.27 c 0.62 0.46 1.38 0.63 2.06 0.97 1.1 0.55 0.35 1.18 1.21 1.86 0.81 0.64 1.98 0.75 2.97 0.9 1.16 0.17 3.85 0.64 5.03 1.33 l 0.21 0.11 -0.44 0.07 c -1.09 0.21 -2.19 0.31 -3.29 0.35 -2.19 0.07 -4.41 0.12 -6.4 1.17 -0.54 0.28 -0.06 1.09 0.48 0.81 z"/>
      </g>
      <path style="fill:url(#Bashka_2_)" d="M 31 27.5 C 18.3 27.5 8 35.56 8 45.51 8 55.44 18.3 63.5 31 63.5 43.71 63.5 54 55.44 54 45.51 54 35.56 43.71 27.5 31 27.5"/>
      <g>
        <g>
          <path style="fill:#ffff00" d="m 49.4 55.11 0.9 0.2 c 1.43 -1.74 2.14 -2.94 2.69 -4.49 l -2.64 -0.44 c -2.69 -0.33 -5.42 -0.04 -7.25 -0.07 -2.44 -0.01 -4.94 0.23 -7.2 0.41 -8.28 0.65 -15.64 3.82 -17.22 4.54 -0.73 0.42 -2.03 1.04 -3.27 1.69 l -1.21 0.71 c 1.09 1.12 2.18 1.87 3.58 2.61 l 1.5 -0.78 c 4.79 -1.73 9.55 -3.23 14.52 -4.1 2.94 -0.49 5.95 -0.87 8.98 -0.79 2.39 0.11 4.43 0.19 6.64 0.51 z"/>
          <path style="fill:none;stroke:#000000;stroke-width:1;stroke-linecap:round" d="M 52.73 50.79 C 46.17 49.52 36.47 50.45 31.59 51.32 26.71 52.19 19.56 54.5 14.19 57.66"/>
          <path style="fill:none;stroke:#000000;stroke-width:1;stroke-linecap:round" d="m 50.06 55.13 c -7.21 -1.27 -12.87 -0.19 -17.53 0.66 -4.66 0.85 -9.95 2.53 -14.79 4.25"/>
        </g>
        <g style="fill:#ffff00;stroke:#000000;stroke-width:1;stroke-linecap:square">
          <rect x="38.5" y="48.5" width="10" height="8"/>
          <rect x="40.5" y="50.5" width="6" height="4"/>
          <line x1="46.5" y1="52.5" x2="43.5" y2="52.5"/>
        </g>
      </g>
      <path style="stroke:#000000;stroke-width:0.5;stroke-linecap:round" d="m 37.21,44.63 c -0.77,0.04 -1.5,-0.07 -2.05,-0.64 -0.54,-0.56 -0.69,-1.48 -0.78,-2.21 -0.08,-0.7 -1.21,-0.71 -1.13,0 0.12,1.06 0.35,2.07 1.03,2.92 0.69,0.86 1.87,1.1 2.92,1.05 0.6 -0.03 0.51 -1.17 0.01,-1.12 z"/>
      <g>
        <path style="fill:url(#XMLID_3_)" d="m 21.86 42.6 c -1.69 1.69 -3.2 1.76 -5.14 2.26 -1.57 0.38 -3.45 0.94 -5.08 0.88 1.13 0 3.32 1.44 4.33 2.19 1.38 1 2.82 2.19 3.57 3.7 1.94 3.64 -1.94 4.89 -4.95 4.26 -1.25 -0.25 -2.95 -1.94 -1.76 -3.14 0.69 -0.75 3.26 -1.07 3.76 0 0.25 -1.13 -3.51 -2.57 -4.58 -3.01 C 10.58 49.06 9.14 48.62 7.88 47.68 5.5 45.98 6.38 44.79 8.51 43.54 c 2.19 -1.38 4.7 -2.26 7.02 -3.32 0.5 -0.19 1 -0.31 1.44 -0.69"/>
        <path style="fill:#800000" d="m 21.53 42.27 c -1.15 1.22 -2.68 1.61 -4.26 1.97 -1.85 0.42 -3.71 1.08 -5.63 1.03 -0.61 -0.02 -0.61 0.92 0 0.94 0.93 0.03 1.89 0.68 2.66 1.16 0.93 0.57 1.83 1.23 2.67 1.94 1.96 1.65 3.3 3.91 2.26 5.19 -1.01 1.25 -3.3 1.3 -4.71 0.91 -1.59 -0.45 -2.79 -2.77 0.42 -2.85 0.42 -0.01 1.03 0.04 1.25 0.45 0.18 0.34 0.79 0.29 0.86 -0.11 0.11 -0.68 -0.35 -1.18 -0.86 -1.57 -2.03 -1.57 -5.47 -2.22 -7.94 -3.94 -0.69 -0.48 -1.71 -1.24 -1.12 -2.15 0.55 -0.85 2.71 -2.06 6.48 -3.66 1.24 -0.56 2.53 -1 3.69 -1.7 0.48 -0.38 -0.19 -1.04 -0.66 -0.67 -1.17 0.63 -2.43 1.1 -3.66 1.62 -1.3 0.55 -2.6 1.12 -3.84 1.8 -1.5 0.82 -4.22 2.36 -2.69 4.38 0.75 0.99 1.94 1.64 3.04 2.15 2.56 1.19 3.74 1.51 5.31 2.38 1.53 0.6 -1.14 -0.04 -2.2 0.8 -1.46 1.16 -0.2 3.61 1.97 4.04 1.67 0.33 3.65 0.19 5.01 -0.91 1.63 -1.31 0.83 -3.54 -0.18 -4.95 -0.99 -1.39 -2.4 -2.44 -3.79 -3.4 -0.64 -0.44 -1.3 -0.85 -1.99 -1.2 -0.61 -0.31 -1.29 -0.61 -1.98 -0.63 v 0.94 c 2 0.05 3.95 -0.61 5.88 -1.06 1.8 -0.28 3.32 -1.01 4.67 -2.21 0.43 -0.42 -0.23 -1.09 -0.67 -0.66 z"/>
      </g>
      <g>
        <path style="fill:#ffffff" d="m 42.54,32.26 c -1.88,-0.91 -3.64,-1.91 -5.62,-2.45 -0.98,-0.2 -4.07,-1 -4.86,0.17 -1.48,1.96 5.25,4.67 6.44,4.99"/>
        <path style="fill:#b80000" d="m 42.65,32.05 c -2.18,-1.06 -4.3,-2.22 -6.71,-2.69 -1.21,-0.23 -3.59,-0.73 -4.23,0.75 -0.49,1.15 0.92,2.17 1.71,2.71 2.17,1.49 4.95,2.35 5.01,2.37 0.29,0.08 0.42,-0.37 0.12,-0.45 -1.17,-0.33 -2.31,-0.87 -3.38,-1.43 -0.69,-0.36 -1.37,-0.75 -1.99,-1.23 -0.44,-0.34 -0.94,-0.77 -1.09,-1.33 -0.18,-0.65 0.52,-1.01 1.04,-1.12 0.86,-0.17 1.82,0.01 2.67,0.17 2.37,0.45 4.45,1.6 6.6,2.64 0.27,0.13 0.51,-0.27 0.24,-0.41 z"/>
        <path style="fill:#000000" d="m 41.01,32.49 c -4.14,-1.76 -5.74,-2.32 -6.47,-2.15 -0.49,0.12 -0.9,0.44 -0.66,0.97 1.35,1.52 3.84,2.04 5.73,2.73"/>
      </g>
      <g>
        <path style="fill:#ffffff" d="m 38.08 33.42 c -1.51 -0.69 -2.66 -1.3 -4.06 -1.85 -2.03 -0.69 -4.46 -1.83 -6.47 -0.37 -0.45 0.31 -0.67 0.76 -0.71 1.26 0.06 3.1 3.79 3.98 6.09 4.99 0.49 0.19 0.98 0.37 1.46 0.56"/>
        <path style="fill:#b80000" d="m 38.2 33.22 c -2.18 -1 -4.3 -2.09 -6.63 -2.71 -1.74 -0.46 -4.67 -0.35 -4.96 1.95 -0.25 1.98 2.24 3.44 2.61 3.65 1.6 0.89 3.42 1.47 5.12 2.14 0.28 0.11 0.4 -0.34 0.12 -0.45 -1.51 -0.59 -3.05 -1.13 -4.51 -1.83 -1.29 -0.62 -2.53 -1.51 -2.83 -2.99 -0.23 -1.16 0.7 -1.83 1.71 -2.12 1 -0.28 2.07 -0.05 3.04 0.24 2.12 0.62 4.08 1.63 6.08 2.54 0.27 0.13 0.51 -0.28 0.24 -0.41 z"/>
        <path style="fill:#000000" d="m 36.88 35.07 c -1.11 -0.55 -5.52 -2.78 -6.75 -2.88 -0.14 -0 -0.28 0.01 -0.41 0.04 -0.54 0.12 -1 0.48 -0.74 1.13 0.08 0.21 0.18 0.42 0.34 0.56 0.84 0.72 5.04 2.52 6 2.94"/>
      </g>
      <path style="fill:#ffff00" d="m 59.4 27.68 c -3.29 2.11 -7.29 3.31 -9.89 6.36 -2.42 2.64 -0.05 7.17 7.08 3.21 h 0 c 2.16 -1.16 5.58 -2.89 8.12 -4.98 3.01 -2.47 0.47 -8.33 -5.32 -4.6 z m 2.47 4.26 c -2.13 1.18 -4.15 2.33 -6.29 3.5 -0 0 -0 0 -0 0.01 -4.35 2.36 -6.64 0.53 -1.7 -2.48 l 6.73 -3.93 c 3.36 -1.96 4.24 1.05 1.26 2.9 z"/>
      <ellipse style="fill:#ffff00" transform="rotate(151.44)" cx="-15.62" cy="-54.1" rx="2.93" ry="3.94"/>
      <ellipse style="fill:#d7d900" transform="rotate(148.67)" cx="-13.52" cy="-54.66" rx="1.86" ry="2.79"/>
      <ellipse style="fill:url(#linearGradient6400);stroke:#b80000;stroke-width:1.13" transform="matrix(0.43957651,0.89820515,-0.87957083,0.47576796,0,0)" cx="48.74" cy="-20.55" rx="3.7" ry="7.66"/>
    </g>
    <path style="fill:url(#linearGradient5771)" d="m 77.37 28.5 c -3.24 -1.78 -6.68 -3.04 -10.35 -2.18 -2.05 0.91 -16.29 8.7 -24.42 13.1 -1.41 0.74 -2.18 1.14 -2.58 0.42 -0.4 -0.72 -0.02 -1.31 1.5 -2.12 7.91 -4.49 16.12 -8.69 23.67 -13.77 2.85 -2.1 2.8 -5.31 2.31 -7.88"/>
    <ellipse style="fill:#ffff00" transform="matrix(-0.86166786,0.50747266,-0.51513769,-0.85710744,0,0)" ry="11.4" rx="4.57" cy="-54.8" cx="-53"/>
    <ellipse style="fill:#b6b600" transform="matrix(-0.49598258,-0.86833247,0.87261286,-0.48841253,0,0)" ry="2.97" rx="8.61" cy="53.96" cx="-53.66"/>
    <ellipse style="fill:url(#radialGradient5773)" transform="matrix(-0.87020993,0.49268111,-0.50027439,-0.86586692,0,0)" ry="6" rx="2.1" cy="-54.13" cx="-53.12"/>
    <g>
      <path style="fill:#ff0000" d="m 52.26 31.39 c -1.08 -1.12 -2.73 -1.18 -2.79 0.62 0 0.87 0.13 1.3 1.08 1.48 0.64 0.06 1.26 0.06 1.08 -0.68"/>
      <path style="fill:#800000" d="m 50.32 30.16 c -0.95 0.19 -1.33 1.1 -1.33 1.97 0.01 0.91 0.37 1.54 1.3 1.79 0.97 0.26 2.02 -0.1 1.79 -1.23 -0.12 -0.58 -1.03 -0.34 -0.92 0.25 0.04 0.19 0.07 0.08 0.02 0.1 -0.05 0.02 -0.61 0.09 -1.02 -0.17 -0.33 -0.2 -0.22 -0.95 -0.16 -1.24 0.24 -1.06 1.45 -0.4 1.93 0.08 0.44 0.43 1.1 -0.23 0.67 -0.66 -0.02 0.01 -0.94 -1.09 -2.28 -0.89 z"/>
      <path style="fill:#ff0000" d="m 53.98 30.68 c -1.08 -1.12 -2.73 -1.18 -2.79 0.62 0 0.87 0.13 1.3 1.08 1.48 0.64 0.06 1.26 0.06 1.08 -0.68"/>
      <path style="fill:#800000" d="m 52.03 29.45 c -0.95 0.19 -1.33 1.1 -1.33 1.97 0.01 0.91 0.37 1.54 1.3 1.79 0.97 0.26 2.02 -0.1 1.79 -1.23 -0.12 -0.58 -1.03 -0.34 -0.92 0.25 0.04 0.19 0.07 0.08 0.02 0.1 -0.05 0.02 -0.61 0.09 -1.02 -0.17 -0.33 -0.2 -0.22 -0.95 -0.16 -1.24 0.24 -1.06 1.45 -0.4 1.93 0.08 0.44 0.43 1.1 -0.23 0.67 -0.66 -0.64 -0.72 -1.23 -1.1 -2.28 -0.89 z"/>
      <path style="fill:#ff0000" d="m 55.56 29.63 c -1.08 -1.12 -2.73 -1.18 -2.79 0.62 0 0.87 0.13 1.3 1.08 1.48 0.64 0.06 1.26 0.06 1.08 -0.68"/>
      <path style="fill:#800000" d="m 53.62 28.4 c -0.93 0.29 -1.33 1.1 -1.33 1.97 0.01 0.91 0.37 1.54 1.3 1.79 0.97 0.26 2.02 -0.1 1.79 -1.23 -0.12 -0.58 -1.03 -0.34 -0.92 0.25 0.04 0.19 0.07 0.08 0.02 0.1 -0.03 0.01 -0.59 0.1 -1.02 -0.17 -0.33 -0.2 -0.22 -0.95 -0.16 -1.24 0.24 -1.06 1.45 -0.4 1.93 0.08 0.44 0.43 1.1 -0.23 0.67 -0.66 -0.66 -0.76 -1.4 -1.16 -2.28 -0.89 z"/>
      <path style="fill:#ff0000" d="m 57.03 28.76 c -1.08 -1.12 -2.73 -1.18 -2.79 0.62 0 0.87 0.13 1.3 1.08 1.48 0.64 0.06 1.26 0.06 1.08 -0.68"/>
      <path style="fill:#800000" d="m 55.08 27.53 c -0.95 0.18 -1.33 1.1 -1.33 1.97 0.01 0.91 0.37 1.54 1.3 1.79 0.97 0.26 2.02 -0.1 1.79 -1.23 -0.12 -0.58 -1.03 -0.34 -0.92 0.25 0.04 0.19 0.07 0.08 0.02 0.1 -0.03 0.01 -0.59 0.1 -1.02 -0.17 -0.33 -0.2 -0.22 -0.95 -0.16 -1.24 0.24 -1.06 1.45 -0.4 1.93 0.08 0.44 0.43 1.1 -0.23 0.67 -0.66 -0.65 -0.73 -1.46 -1.04 -2.28 -0.89 z"/>
    </g>
  </g>
</svg>
