<?xml version="1.0" encoding="utf-8" standalone="no"?>
<svg version="1.1" width="900" height="900" xmlns="http://www.w3.org/2000/svg">
  <rect style="fill:none;opacity:0" width="900" height="900"/>
  <path style="fill:#08e851" d="m 5,40 c 0,-20 15,-35 35,-35 20,0 800,0 820,0 20,0 35,15 35,35 0,20 0,800 0,820 0,20 -15,37 -35,37 -20,0 -800,0 -820,0 -20,0 -35,-17 -35,-37 C 5,840 5,56.5 5,40 z"/>
  <path style="stroke:#000000;stroke-width:5;stroke-opacity:0.27" d="m 5,800 h 890 m -890,-100 h 890 m -890,-100 h 890 m -890,-100 H 895 M 5,400 H 895 M 5,300 h 890 m -890,-100 h 890 m -890,-100 H 895 M 800,5 c 0,165 0,890 0,890 m -100,-890 c 0,165 0,890 0,890 m -100,-890 c 0,165 0,890 0,890 m -100,-890 c 0,165 0,890 0,890 M 400,5 c 0,165 0,890 0,890 M 300,5 c 0,165 0,890 0,890 M 200,5 c 0,165 0,890 0,890 M 100,5 c 0,165 0,890 0,890"/>
  <path style="fill:none;stroke:#65391b;stroke-width:6" d="M 3,40 C 3,20 20,3 40,3 c 20,0 800,0 820,0 20,0 37,17 37,37 0,20 0,800 0,820 0,20 -17,37 -37,37 -20,0 -800,0 -820,0 -20,0 -37,-17 -37,-37 C 3,840 3,56.5 3,40 z"/>
</svg>
