<?xml version="1.0" encoding="UTF-8" standalone="no"?>
<!-- Created with Inkscape (http://www.inkscape.org/) -->

<svg
   xmlns:dc="http://purl.org/dc/elements/1.1/"
   xmlns:cc="http://creativecommons.org/ns#"
   xmlns:rdf="http://www.w3.org/1999/02/22-rdf-syntax-ns#"
   xmlns:svg="http://www.w3.org/2000/svg"
   xmlns="http://www.w3.org/2000/svg"
   xmlns:sodipodi="http://sodipodi.sourceforge.net/DTD/sodipodi-0.dtd"
   xmlns:inkscape="http://www.inkscape.org/namespaces/inkscape"
   width="900"
   height="900"
   id="svg3003"
   version="1.1"
   inkscape:version="0.48.4 r9939"
   sodipodi:docname="settings-bg.svg">
  <defs
     id="defs3005" />
  <sodipodi:namedview
     id="base"
     pagecolor="#ffffff"
     bordercolor="#666666"
     borderopacity="1.0"
     inkscape:pageopacity="0.0"
     inkscape:pageshadow="2"
     inkscape:zoom="0.7"
     inkscape:cx="123.00022"
     inkscape:cy="747.81969"
     inkscape:document-units="px"
     inkscape:current-layer="layer1"
     showgrid="true"
     inkscape:window-width="1820"
     inkscape:window-height="1002"
     inkscape:window-x="1366"
     inkscape:window-y="26"
     inkscape:window-maximized="0"
     fit-margin-top="0"
     fit-margin-left="0"
     fit-margin-right="0"
     fit-margin-bottom="0">
    <inkscape:grid
       type="xygrid"
       id="grid3011"
       empspacing="10"
       visible="true"
       enabled="true"
       snapvisiblegridlinesonly="true"
       spacingx="1px"
       spacingy="1px"
       originx="0px"
       originy="1.6376954e-05px" />
  </sodipodi:namedview>
  <metadata
     id="metadata3008">
    <rdf:RDF>
      <cc:Work
         rdf:about="">
        <dc:format>image/svg+xml</dc:format>
        <dc:type
           rdf:resource="http://purl.org/dc/dcmitype/StillImage" />
        <dc:title />
      </cc:Work>
    </rdf:RDF>
  </metadata>
  <g
     inkscape:label="Layer 1"
     inkscape:groupmode="layer"
     id="layer1"
     transform="translate(0,-152.3622)">
    <path
       style="fill:none;fill-opacity:1;stroke:none"
       d="m 5,192.36213 c 0,-19.95535 15,-35 35,-35 20,0 800,0 820,0 20,0 35,15 35,35 0,20 0,799.99997 0,819.99997 0,20 -15,37.0001 -35,37.0001 -20,0 -800,0 -820,0 -20,0 -35,-17.0001 -35,-37.0001 0,-20 0,-803.50081 0,-819.99997 z"
       id="path3017"
       inkscape:connector-curvature="0"
       sodipodi:nodetypes="sssssssss" />
    <path
       style="fill:none;stroke:#ffffff;stroke-width:6;stroke-linecap:butt;stroke-linejoin:miter;stroke-miterlimit:4;stroke-opacity:0.50196081;stroke-dasharray:none"
       d="m 3,192.36218 c 0,-19.9554 17,-37 37,-37 20,0 800,0 820,0 20,0 37,17 37,37 0,20 0,800 0,820.00002 0,20 -17,37 -37,37 -20,0 -800,0 -820,0 -20,0 -37,-17 -37,-37 0,-20.00002 0,-803.50082 0,-820.00002 z"
       id="path3017-8"
       inkscape:connector-curvature="0"
       sodipodi:nodetypes="sssssssss" />
    <path
       sodipodi:nodetypes="sssssssss"
       inkscape:connector-curvature="0"
       id="path3753"
       d="m 3,192.36218 c 0,-19.9554 17,-37 37,-37 20,0 800,0 820,0 20,0 37,17 37,37 0,20 0,800 0,820.00002 0,20 -17,37 -37,37 -20,0 -800,0 -820,0 -20,0 -37,-17 -37,-37 0,-20.00002 0,-803.50082 0,-820.00002 z"
       style="fill:none;stroke:#ffffff;stroke-width:6;stroke-linecap:butt;stroke-linejoin:miter;stroke-miterlimit:4;stroke-opacity:0.50196081;stroke-dasharray:none" />
  </g>
</svg>
