<?xml version="1.0" encoding="utf-8" standalone="no"?>
<svg version="1.1" width="150" height="122" viewBox="0 0 150 122" xmlns:xlink="http://www.w3.org/1999/xlink" xmlns="http://www.w3.org/2000/svg">
  <defs>
    <radialGradient id="XMLID_8_" cx="460.665" cy="95.329" r="31.056" fx="460.665" fy="95.329" gradientTransform="matrix(-0.2112749,-0.01981135,0.01037407,-0.11062253,175.75731,135.13471)" gradientUnits="userSpaceOnUse">
      <stop offset="0" stop-color="#ff0000"/>
      <stop offset="0.41" stop-color="#ff0000"/>
      <stop offset="1" stop-color="#b31907"/>
    </radialGradient>
    <radialGradient id="XMLID_9_" cx="759.51" cy="96.99" r="31.06" fx="759.51" fy="96.99" gradientTransform="matrix(-0.2122018,0,0,-0.1313694,177.17325,127.82769)" gradientUnits="userSpaceOnUse">
      <stop offset="0" stop-color="#ff0000"/>
      <stop offset="0.41" stop-color="#ff0000"/>
      <stop offset="1" stop-color="#b31907"/>
    </radialGradient>
    <linearGradient id="Bashka_2_" gradientUnits="userSpaceOnUse" x1="452.02" y1="457.65" x2="688.13" y2="166.08" gradientTransform="matrix(-0.23908296,0,0,-0.1954263,186.32538,131.9118)">
      <stop offset="0" stop-color="#ff0000"/>
      <stop offset="1" stop-color="#803200"/>
    </linearGradient>
    <linearGradient id="XMLID_3_" gradientUnits="userSpaceOnUse" x1="692.26" y1="347.08" x2="793.7" y2="245.64" gradientTransform="matrix(-0.20908641,0,0,-0.20907706,175.04672,136.2811)">
      <stop offset="0" stop-color="#b60000"/>
      <stop offset="1" stop-color="#fa3200"/>
    </linearGradient>
    <radialGradient id="XMLID_5_-4" cx="500.56" cy="425.97" r="25.628" fx="500.56" fy="425.97" gradientTransform="rotate(180,418.58845,328.5851)" gradientUnits="userSpaceOnUse">
      <stop offset="0" stop-color="#ffffff"/>
      <stop offset="0.0352" stop-color="#ffecec"/>
      <stop offset="0.1445" stop-color="#ffb5b5"/>
      <stop offset="0.2576" stop-color="#ff8585"/>
      <stop offset="0.3722" stop-color="#ff5c5c"/>
      <stop offset="0.4887" stop-color="#ff3b3b"/>
      <stop offset="0.6076" stop-color="#ff2121"/>
      <stop offset="0.73" stop-color="#ff0e0e"/>
      <stop offset="0.8577" stop-color="#ff0404"/>
      <stop offset="1" stop-color="#ff0000"/>
    </radialGradient>
    <linearGradient id="linearGradient5566-8">
      <stop offset="0" style="stop-color:#808000;stop-opacity:1"/>
      <stop offset="1" style="stop-color:#808000;stop-opacity:0"/>
    </linearGradient>
    <linearGradient id="XMLID_4_-5" gradientUnits="userSpaceOnUse" x1="183.46" y1="483.97" x2="553.135" y2="483.973" gradientTransform="matrix(-0.09113673,0.05114358,-0.05114358,-0.09113673,120.79506,60.317271)">
      <stop offset="0" stop-color="#d4d400"/>
      <stop offset="1" stop-color="#fcff00"/>
    </linearGradient>
    <linearGradient id="linearGradient5771" xlink:href="#XMLID_4_-5" gradientUnits="userSpaceOnUse" gradientTransform="matrix(-0.18278237,0.10153246,-0.10257275,-0.1809286,218.25534,92.258113)" x1="183.46" y1="483.97" x2="553.135" y2="483.973"/>
    <radialGradient id="radialGradient5773" xlink:href="#linearGradient5566-8" gradientUnits="userSpaceOnUse" gradientTransform="matrix(0.32390267,-0.01864409,0.04374087,0.7520931,-319.11882,-150.49001)" cx="651.42" cy="102.86" fx="651.42" fy="102.86" r="20.075"/>
    <linearGradient id="linearGradient6400" xlink:href="#XMLID_5_-4" x1="272.211" y1="239.58" x2="347.01" y2="239.58" gradientUnits="userSpaceOnUse" gradientTransform="matrix(0.2287877,0,0,0.2222368,3.2959269,-92.40287)"/>
  </defs>
  <rect style="opacity:0;fill:none" width="150" height="122"/>
  <g>
    <path style="fill:#800000" d="m 33.78 43.55 c 0 0 -1.68 -1.08 -3.36 -2.18 -3.94 -1.76 -8.58 -0.08 -12.2 -2.34 -2.26 -1.32 -3.32 -3.82 -3.4 -6.08 0.06 -2.4 0.84 -4.9 2.64 -6.3 3.64 -2.6 8.76 -3.02 12.42 -0.42 0.98 0.72 1.82 1.64 2.4 2.72 0.58 1.08 0.74 2.32 0.88 3.68 0.24 2.4 -0.7 2.22 -1.62 1.34 -1.42 -1.4 -2.26 -2.2 -3.46 -2.98 -1.6 -0.62 -3.18 -1.44 -4.84 -0.28 -1.12 0.62 -2.9 3.58 1.3 5.86 2.46 1.34 5.54 1.86 7.72 3.16 1.12 0.78 2.84 2 2.84 2"/>
    <g>
      <path style="fill:#b31900" d="m 70.89 100.53 c -2.38 1.5 -6.4 5.64 -7.28 8.28 -0.92 3.56 0.36 4.06 3.76 3.88 5.26 -0.5 15.55 -5.52 19.57 -0.12 2.38 3 3.14 6.28 -1.26 7.28 -3.78 0.84 -15.37 1.26 -17.43 0.76 -3.08 -2.86 -3.92 -2.28 -7.64 -0.74 -3.88 0.62 -8.4 0.76 -8.28 -4.26 0.12 -2.38 1.76 -3 2.38 -5.14 0.88 -2.64 -0.12 -5.9 -0.12 -8.52"/>
      <path style="fill:#800000" d="m 70.41 99.71 c -1.72 1.1 -2.8 1.82 -4.7 4.08 -1.7 1.7 -2.68 3.08 -3.04 4.86 -0.26 1.3 -0.9 3.5 0.4 4.44 1.34 0.98 3.54 0.66 5.08 0.44 5.46 -0.86 10.98 -3.74 16.47 -1.76 1.54 0.8 2.86 2.04 3.32 3.68 0.62 2.2 -1.88 3.38 -3.54 3.7 -2.84 0.54 -5.72 0.4 -8.58 0.54 -2.4 0.12 -4.92 0.54 -7.3 0 -0.82 -0.2 -1.22 -0.98 -1.72 -1.58 -0.62 -0.74 -1.58 -1.08 -2.52 -0.94 -2.52 0.34 -1.2 1.54 -5.64 1.98 -7.2 0.68 -5.48 -4.34 -4.36 -5.94 1.4 -1.98 1.84 -4 1.7 -6.4 -0.1 -1.64 -0.38 -3.18 -0.44 -4.9 0 0 -1.88 -0.04 -1.88 0 0 2.56 0.84 5.16 0.32 7.7 -0.42 2.04 -2.22 3.34 -2.52 5.42 -0.18 1.22 -0.48 6.3 6.54 6.04 2.14 -0.1 3.86 -0.64 5.64 -1.7 0.86 -0.5 1.44 -0.5 2.04 0.3 0.6 0.8 1.16 1.4 2.1 1.74 2.32 0.62 4.78 0.36 7.16 0.2 2.78 -0.18 5.54 -0.08 8.3 -0.42 2.16 -0.26 4.62 -0.58 6 -2.46 1.04 -1.44 0.82 -3.48 0.1 -4.9 -2.4 -4.82 -6.76 -4.84 -9.46 -4.66 -3.92 0.26 -7.64 1.68 -11.48 2.4 -0.56 0.1 -2.48 0.38 -3.56 0.18 -0.2 -0.02 -0.4 -0.1 -0.6 -0.16 -0.1 -1.74 0.48 -3.22 1.44 -4.62 1.48 -2.14 3.5 -4.22 5.7 -5.64 0 -0.02 -0.96 -1.62 -0.96 -1.62 z"/>
      <ellipse style="fill:url(#XMLID_8_)" cx="79.415" cy="115.46" rx="8.52" ry="4"/>
    </g>
    <g>
      <path style="fill:#b31900" d="m 52.18 103.29 c -2.76 0.38 -6.02 5.76 -6.78 8.16 -0.88 2.38 0.26 6.02 -1.38 8.02 -1.86 1.74 -4.68 1.46 -7.02 1 -0.62 -0.38 -0.88 -1.5 -1.76 -1.64 -1 -0.12 -1.12 0.76 -1.76 1.12 -2.3 1.02 -4.94 0.66 -7.4 0.62 -4.38 0 -19.07 2.38 -20.07 -4.02 -1.26 -8.02 12.28 -7.52 17.19 -6.9 3.64 0.5 6.64 3.76 10.54 2.26 3.76 -1.38 6.28 -6.4 8.4 -9.4"/>
      <path style="fill:#800000" d="m 51.94 102.39 c -3.22 1.36 -6.16 5.64 -7.14 8.02 -1.42 3.46 0.12 6.86 -1.78 8.8 -1.42 0.88 -3.18 0.58 -4.8 0.6 -0.62 0 -0.84 -0.26 -1.16 -0.7 -0.64 -0.9 -1.4 -1.3 -2.5 -1.14 -0.86 0.12 -1.26 1.12 -2.04 1.44 -1.12 0.44 -2.52 0.32 -3.68 0.32 -3.2 -0.04 -6.32 0.18 -9.52 0.32 -3.18 0.14 -6.58 0.22 -9.62 -0.84 -3.98 -1.4 -2.72 -4.82 -2.26 -5.6 2.42 -4.18 13.17 -3.38 15.83 -2.96 2.12 0.34 4 1.58 6.02 2.24 2.06 0.66 4.16 0.42 6.04 -0.64 3.54 -1.98 5.3 -4.4 8.04 -9.22 l -2 -0.96 c -2.28 3.24 -4.3 7.92 -8.4 9.16 -2.22 0.68 -4.46 -0.66 -6.42 -1.5 -4.48 -1.92 -11.36 -1.32 -14.09 -0.82 -2.66 0.48 -5.72 1.62 -6.92 4.26 -1.2 2.62 -0.3 5.64 2.14 7.14 C 10.31 121.92 13.87 122 16.85 122 c 2.94 0 5.86 -0.34 8.8 -0.42 2.32 -0.08 4.66 0.26 6.94 -0.22 0.92 -0.2 1.64 -0.68 2.24 -1.38 0.3 -0.36 0.5 -0.02 0.7 0.26 0.3 0.42 0.58 0.76 1 1.08 0.98 0.7 5.56 0.66 7.22 -0.3 2.32 -1.34 2.18 -4.46 2.22 -6.76 0.06 -3.84 3.38 -9.02 6.46 -10.02 -0.06 -0.04 -0.5 -1.82 -0.5 -1.82 z"/>
      <ellipse style="fill:url(#XMLID_9_)" cx="16.01" cy="115.08" rx="8.52" ry="4"/>
    </g>
    <g>
      <path style="fill:#ff0000" d="m 90.46 62.52 c 6.02 -3.26 13.17 -1.38 19.45 -3 2 -0.5 2.38 -0.88 0.38 -2 -1.64 -1 -3.64 -1.38 -5.52 -1.88 -2.5 -0.76 -5.26 -0.76 -7.9 -1.5 -0.76 -0.12 -1.64 -0.26 -2.14 -0.76 -1.5 -0.88 -0.76 -1.64 -1.38 -2.76 -1 -1.5 -3 -1.76 -4.64 -2.64 l 12.64 -8.18 c 2.1 -0.54 3.22 -1.16 5.54 0.14 0.62 1.26 -0.12 3 0.38 4.38 0.5 1.5 2 2.88 3.14 3.88 2.88 2.38 4.76 5.64 7.78 8.02 1.5 1.38 3.52 1.64 3.76 3.76 0.26 2.14 -1.12 2.26 -2.88 2.5 -7.4 0.88 -13.67 2.5 -20.57 5.14 -5.02 1.88 -9.54 4.26 -14.43 6.4"/>
      <path style="fill:#800000" d="m 90.94 63.34 c 4.8 -2.54 10.38 -1.8 15.61 -2.3 2.72 -0.26 5.56 -0.82 5.94 -2 0.26 -0.82 -0.36 -1.4 -0.96 -1.86 -2.46 -1.88 -7.74 -2.78 -11.98 -3.44 -1.24 -0.2 -2.52 -0.44 -3.72 -0.8 -1.14 -0.46 -1.16 -1.06 -1.38 -2.14 -0.58 -2.16 -3.3 -2.68 -5.02 -3.5 0 0 11.92 -7.48 11.94 -7.48 1.3 -0.12 3.9 -0.72 4.72 0.62 0.4 0.62 -0.06 1.86 0.12 3.38 0.14 1.24 0.86 2.28 1.64 3.22 0.76 0.92 1.72 1.68 2.6 2.48 1 0.9 1.86 1.92 2.74 2.94 1.62 1.88 3.26 3.8 5.32 5.24 1.04 0.72 2.4 1.16 2.54 2.6 0.12 1.38 -1.7 1.26 -2.66 1.38 -3.98 0.5 -7.9 1.26 -11.78 2.32 -3.92 1.08 -7.78 2.46 -11.52 4.04 -3.86 1.64 -7.62 3.52 -11.46 5.22 -1.1 0.48 -0.16 2.1 0.94 1.62 5.38 -2.36 10.62 -5.02 16.17 -7.02 5.26 -1.9 10.66 -3.28 16.19 -4.1 1.62 -0.24 4.56 -0.06 5.6 -1.68 1.06 -1.66 0.16 -3.86 -1.3 -4.9 -0.76 -0.56 -1.62 -0.96 -2.34 -1.58 -1.04 -0.9 -2 -1.82 -2.92 -2.84 -1.72 -1.92 -3.34 -3.82 -5.26 -5.56 -0.92 -0.82 -1.78 -1.7 -2.36 -2.8 -0.58 -1.1 -0.12 -2.5 -0.24 -3.68 -0.22 -2.02 -2 -2.84 -3.82 -3.04 L 87.26 48.21 c 1.24 0.92 2.76 1.26 4.12 1.94 2.2 1.1 0.7 2.36 2.42 3.72 1.62 1.28 3.96 1.5 5.94 1.8 2.32 0.34 7.7 1.28 10.06 2.66 l 0.42 0.22 -0.88 0.14 c -2.18 0.42 -4.38 0.62 -6.58 0.7 -4.38 0.14 -8.82 0.24 -12.8 2.34 -1.08 0.56 -0.12 2.18 0.96 1.62 z"/>
    </g>
    <path style="fill:url(#Bashka_2_)" d="m 50.02 34.95 c -25.41 0 -46.02 16.13 -46.02 36.03 0 19.87 20.61 35.99 46.02 35.99 25.43 0 46.02 -16.13 46.02 -35.99 0 -19.91 -20.59 -36.03 -46.02 -36.03"/>
    <g>
      <g>
        <path style="fill:#ffff00" d="m 86.84 90.19 1.8 0.4 c 2.86 -3.48 4.28 -5.88 5.38 -8.98 l -5.28 -0.88 c -5.38 -0.66 -10.84 -0.08 -14.51 -0.14 -4.88 -0.02 -9.88 0.46 -14.41 0.82 -16.57 1.3 -31.29 7.64 -34.45 9.08 -1.46 0.84 -4.06 2.08 -6.54 3.38 l -2.42 1.42 c 2.18 2.24 4.36 3.74 7.16 5.22 l 3 -1.56 c 9.58 -3.46 19.11 -6.46 29.05 -8.2 5.88 -0.98 11.9 -1.74 17.97 -1.58 4.78 0.22 8.86 0.38 13.29 1.02 z"/>
        <path style="fill:none;stroke:#000000;stroke-linecap:round" d="M 93.5 81.55 C 80.38 79.01 60.97 80.87 51.2 82.61 41.44 84.35 27.14 88.97 16.39 95.29"/>
        <path style="fill:none;stroke:#000000;stroke-linecap:round" d="M 88.16 90.23 C 73.73 87.69 62.41 89.85 53.09 91.55 c -9.32 1.7 -19.91 5.06 -29.59 8.5"/>
      </g>
      <g style="fill:#ffff00;stroke:#000000;stroke-linecap:square">
        <rect x="65" y="77" width="20" height="16"/>
        <rect x="69" y="81" width="12" height="8"/>
        <line x1="81" y1="85" x2="75" y2="85"/>
      </g>
    </g>
    <path style="stroke:#000000;stroke-width:1;stroke-linecap:round" d="m 62.45 69.22 c -1.54 0.08 -3 -0.14 -4.1 -1.28 -1.08 -1.12 -1.38 -2.96 -1.56 -4.42 -0.16 -1.4 -2.42 -1.42 -2.26 0 0.24 2.12 0.7 4.14 2.06 5.84 1.38 1.72 3.74 2.2 5.84 2.1 1.2 -0.06 1.02 -2.34 0.02 -2.24 z"/>
    <g>
      <path style="fill:url(#XMLID_3_)" d="m 31.74 65.16 c -3.38 3.38 -6.4 3.52 -10.28 4.52 -3.14 0.76 -6.9 1.88 -10.16 1.76 2.26 0 6.64 2.88 8.66 4.38 2.76 2 5.64 4.38 7.14 7.4 3.88 7.28 -3.88 9.78 -9.9 8.52 -2.5 -0.5 -5.9 -3.88 -3.52 -6.28 1.38 -1.5 6.52 -2.14 7.52 0 C 21.69 83.21 14.17 80.33 12.03 79.45 9.17 78.08 6.29 77.2 3.77 75.32 -1 71.92 0.76 69.54 5.03 67.04 9.41 64.28 14.43 62.52 19.07 60.4 c 1 -0.38 2 -0.62 2.88 -1.38"/>
      <path style="fill:#800000" d="m 31.08 64.5 c -2.3 2.44 -5.36 3.22 -8.52 3.94 -3.7 0.84 -7.42 2.16 -11.26 2.06 -1.22 -0.04 -1.22 1.84 0 1.88 1.86 0.06 3.78 1.36 5.32 2.32 1.86 1.14 3.66 2.46 5.34 3.88 3.92 3.3 6.6 7.82 4.52 10.38 -2.02 2.5 -6.6 2.6 -9.42 1.82 -3.18 -0.9 -5.58 -5.54 0.84 -5.7 0.84 -0.02 2.06 0.08 2.5 0.9 0.36 0.68 1.58 0.58 1.72 -0.22 0.22 -1.36 -0.7 -2.36 -1.72 -3.14 C 16.33 79.49 9.45 78.18 4.51 74.74 3.13 73.78 1.09 72.26 2.27 70.44 3.37 68.74 7.69 66.32 15.23 63.12 c 2.48 -1.12 5.06 -2 7.38 -3.4 0.96 -0.76 -0.38 -2.08 -1.32 -1.34 -2.34 1.26 -4.86 2.2 -7.32 3.24 -2.6 1.1 -5.2 2.24 -7.68 3.6 -3 1.64 -8.44 4.72 -5.38 8.76 1.5 1.98 3.88 3.28 6.08 4.3 5.12 2.38 7.48 3.02 10.62 4.76 3.06 1.2 -2.28 -0.08 -4.4 1.6 -2.92 2.32 -0.4 7.22 3.94 8.08 3.34 0.66 7.3 0.38 10.02 -1.82 3.26 -2.62 1.66 -7.08 -0.36 -9.9 C 24.83 78.22 22.01 76.12 19.23 74.2 17.95 73.32 16.63 72.5 15.25 71.8 14.03 71.18 12.67 70.58 11.29 70.54 v 1.88 c 4 0.1 7.9 -1.22 11.76 -2.12 3.6 -0.56 6.64 -2.02 9.34 -4.42 0.86 -0.84 -0.46 -2.18 -1.34 -1.32 z"/>
    </g>
    <g>
      <path style="fill:#ffffff" d="m 73.11 44.47 c -3.76 -1.82 -7.28 -3.82 -11.24 -4.9 -1.96 -0.4 -8.14 -2 -9.72 0.34 -2.96 3.92 10.5 9.34 12.89 9.98"/>
      <path style="fill:#b80000" d="m 73.33 44.05 c -4.36 -2.12 -8.6 -4.44 -13.43 -5.38 -2.42 -0.46 -7.18 -1.46 -8.46 1.5 -0.98 2.3 1.84 4.34 3.42 5.42 4.34 2.98 9.9 4.7 10.02 4.74 0.58 0.16 0.84 -0.74 0.24 -0.9 -2.34 -0.66 -4.62 -1.74 -6.76 -2.86 -1.38 -0.72 -2.74 -1.5 -3.98 -2.46 -0.88 -0.68 -1.88 -1.54 -2.18 -2.66 -0.36 -1.3 1.04 -2.02 2.08 -2.24 1.72 -0.34 3.64 0.02 5.34 0.34 4.74 0.9 8.9 3.2 13.21 5.28 0.54 0.26 1.02 -0.54 0.48 -0.82 z"/>
      <path style="fill:#000000" d="m 70.05 44.93 c -8.28 -3.52 -11.48 -4.64 -12.95 -4.3 -0.98 0.24 -1.8 0.88 -1.32 1.94 2.7 3.04 7.68 4.08 11.46 5.46"/>
    </g>
    <g>
      <path style="fill:#ffffff" d="m 64.19 46.79 c -3.02 -1.38 -5.32 -2.6 -8.12 -3.7 -4.06 -1.38 -8.92 -3.66 -12.95 -0.74 -0.9 0.62 -1.34 1.52 -1.42 2.52 0.12 6.2 7.58 7.96 12.18 9.98 0.98 0.38 1.96 0.74 2.92 1.12"/>
      <path style="fill:#b80000" d="m 64.43 46.39 c -4.36 -2 -8.6 -4.18 -13.27 -5.42 -3.48 -0.92 -9.34 -0.7 -9.92 3.9 -0.5 3.96 4.48 6.88 5.22 7.3 3.2 1.78 6.84 2.94 10.24 4.28 0.56 0.22 0.8 -0.68 0.24 -0.9 -3.02 -1.18 -6.1 -2.26 -9.02 -3.66 -2.58 -1.24 -5.06 -3.02 -5.66 -5.98 -0.46 -2.32 1.4 -3.66 3.42 -4.24 2 -0.56 4.14 -0.1 6.08 0.48 4.24 1.24 8.16 3.26 12.16 5.08 0.54 0.26 1.02 -0.56 0.48 -0.82 z"/>
      <path style="fill:#000000" d="m 61.79 50.1 c -2.22 -1.1 -11.04 -5.56 -13.51 -5.76 -0.28 0 -0.56 0.02 -0.82 0.08 -1.08 0.24 -2 0.96 -1.48 2.26 0.16 0.42 0.36 0.84 0.68 1.12 1.68 1.44 10.08 5.04 12 5.88"/>
    </g>
    <path style="fill:#ffff00" d="m 106.85 35.31 c -6.58 4.22 -14.59 6.62 -19.79 12.72 -4.84 5.28 -0.1 14.34 14.17 6.42 v 0 c 4.32 -2.32 11.16 -5.78 16.25 -9.96 6.02 -4.94 0.94 -16.67 -10.64 -9.2 z m 4.94 8.52 c -4.26 2.36 -8.3 4.66 -12.58 7 0 0 0 0 0 0.02 -8.7 4.72 -13.29 1.06 -3.4 -4.96 l 13.47 -7.86 c 6.72 -3.92 8.48 2.1 2.52 5.8 z"/>
    <ellipse style="fill:#ffff00" transform="matrix(-0.87832593,0.47806229,-0.47809528,-0.87830798,0,0)" cx="-30.31" cy="-84.87" rx="5.86" ry="7.88"/>
    <ellipse style="fill:#d7d900" transform="matrix(-0.85419702,0.51994947,-0.51998338,-0.85417638,0,0)" cx="-27.23" cy="-85.98" rx="3.72" ry="5.58"/>
    <ellipse style="fill:url(#linearGradient6400);stroke:#b80000;stroke-width:2.2" transform="matrix(0.43959238,0.89819738,-0.87957974,0.47575149,0,0)" cx="74.13" cy="-39.16" rx="7.4" ry="15.32"/>
  </g>
  <path style="fill:url(#linearGradient5771)" d="m 142.8 36.95 c -6.48 -3.56 -13.37 -6.08 -20.71 -4.36 -4.1 1.82 -32.59 17.41 -48.86 26.21 -2.82 1.48 -4.36 2.28 -5.16 0.84 -0.8 -1.44 -0.04 -2.62 3 -4.24 15.83 -8.98 32.25 -17.39 47.36 -27.55 5.7 -4.2 5.6 -10.62 4.62 -15.77"/>
  <ellipse style="fill:#ffff00" transform="matrix(-0.86167777,0.50745583,-0.51515461,-0.85709727,0,0)" ry="22.81" rx="9.14" cy="-86.25" cx="-106.1"/>
  <ellipse style="fill:#b6b600" transform="matrix(-0.49599932,-0.86832291,0.87262218,-0.48839588,0,0)" ry="5.94" rx="17.22" cy="107.49" cx="-83.98"/>
  <ellipse style="fill:url(#radialGradient5773)" transform="matrix(-0.87021938,0.49266443,-0.50029116,-0.86585724,0,0)" ry="12" rx="4.2" cy="-84.92" cx="-105.93"/>
  <g>
    <path style="fill:#ff0000" d="m 92.56 42.73 c -2.16 -2.24 -5.46 -2.36 -5.58 1.24 0 1.74 0.26 2.6 2.16 2.96 1.28 0.12 2.52 0.12 2.16 -1.36"/>
    <path style="fill:#800000" d="m 88.68 40.27 c -1.9 0.38 -2.66 2.2 -2.66 3.94 0.02 1.82 0.74 3.08 2.6 3.58 1.94 0.52 4.04 -0.2 3.58 -2.46 -0.24 -1.16 -2.06 -0.68 -1.84 0.5 0.08 0.38 0.14 0.16 0.04 0.2 -0.1 0.04 -1.22 0.18 -2.04 -0.34 -0.66 -0.4 -0.44 -1.9 -0.32 -2.48 0.48 -2.12 2.9 -0.8 3.86 0.16 0.88 0.86 2.2 -0.46 1.34 -1.32 -0.04 0.02 -1.88 -2.18 -4.56 -1.78 z"/>
    <path style="fill:#ff0000" d="m 96 41.31 c -2.16 -2.24 -5.46 -2.36 -5.58 1.24 0 1.74 0.26 2.6 2.16 2.96 1.28 0.12 2.52 0.12 2.16 -1.36"/>
    <path style="fill:#800000" d="m 92.1 38.85 c -1.9 0.38 -2.66 2.2 -2.66 3.94 0.02 1.82 0.74 3.08 2.6 3.58 1.94 0.52 4.04 -0.2 3.58 -2.46 -0.24 -1.16 -2.06 -0.68 -1.84 0.5 0.08 0.38 0.14 0.16 0.04 0.2 -0.1 0.04 -1.22 0.18 -2.04 -0.34 -0.66 -0.4 -0.44 -1.9 -0.32 -2.48 0.48 -2.12 2.9 -0.8 3.86 0.16 0.88 0.86 2.2 -0.46 1.34 -1.32 -1.28 -1.44 -2.46 -2.2 -4.56 -1.78 z"/>
    <path style="fill:#ff0000" d="m 99.16 39.21 c -2.16 -2.24 -5.46 -2.36 -5.58 1.24 0 1.74 0.26 2.6 2.16 2.96 1.28 0.12 2.52 0.12 2.16 -1.36"/>
    <path style="fill:#800000" d="m 95.28 36.75 c -1.86 0.58 -2.66 2.2 -2.66 3.94 0.02 1.82 0.74 3.08 2.6 3.58 1.94 0.52 4.04 -0.2 3.58 -2.46 -0.24 -1.16 -2.06 -0.68 -1.84 0.5 0.08 0.38 0.14 0.16 0.04 0.2 -0.06 0.02 -1.18 0.2 -2.04 -0.34 -0.66 -0.4 -0.44 -1.9 -0.32 -2.48 0.48 -2.12 2.9 -0.8 3.86 0.16 0.88 0.86 2.2 -0.46 1.34 -1.32 -1.32 -1.52 -2.8 -2.32 -4.56 -1.78 z"/>
    <path style="fill:#ff0000" d="m 102.1 37.47 c -2.16 -2.24 -5.46 -2.36 -5.58 1.24 0 1.74 0.26 2.6 2.16 2.96 1.28 0.12 2.52 0.12 2.16 -1.36"/>
    <path style="fill:#800000" d="m 98.2 35.01 c -1.9 0.36 -2.66 2.2 -2.66 3.94 0.02 1.82 0.74 3.08 2.6 3.58 1.94 0.52 4.04 -0.2 3.58 -2.46 -0.24 -1.16 -2.06 -0.68 -1.84 0.5 0.08 0.38 0.14 0.16 0.04 0.2 -0.06 0.02 -1.18 0.2 -2.04 -0.34 -0.66 -0.4 -0.44 -1.9 -0.32 -2.48 0.48 -2.12 2.9 -0.8 3.86 0.16 0.88 0.86 2.2 -0.46 1.34 -1.32 -1.3 -1.46 -2.92 -2.08 -4.56 -1.78 z"/>
  </g>
</svg>
