<?xml version="1.0" encoding="UTF-8" standalone="no"?>
<!-- Created with Inkscape (http://www.inkscape.org/) -->

<svg
   xmlns:dc="http://purl.org/dc/elements/1.1/"
   xmlns:cc="http://creativecommons.org/ns#"
   xmlns:rdf="http://www.w3.org/1999/02/22-rdf-syntax-ns#"
   xmlns:svg="http://www.w3.org/2000/svg"
   xmlns="http://www.w3.org/2000/svg"
   xmlns:sodipodi="http://sodipodi.sourceforge.net/DTD/sodipodi-0.dtd"
   xmlns:inkscape="http://www.inkscape.org/namespaces/inkscape"
   width="900"
   height="900"
   id="svg3003"
   version="1.1"
   inkscape:version="0.48.4 r9939"
   sodipodi:docname="settings-bg.svg">
  <metadata
     id="metadata3008">
    <rdf:RDF>
      <cc:Work
         rdf:about="">
        <dc:format>image/svg+xml</dc:format>
        <dc:type
           rdf:resource="http://purl.org/dc/dcmitype/StillImage" />
        <dc:title />
      </cc:Work>
    </rdf:RDF>
  </metadata>
  <g
     inkscape:label="Layer 1"
     inkscape:groupmode="layer"
     id="layer1"
     transform="translate(0,-152.3622)">
    <path
       style="fill:none;fill-opacity:1;stroke:none"
       d="m 5,192.36213 c 0,-19.95535 15,-35 35,-35 20,0 800,0 820,0 20,0 35,15 35,35 0,20 0,799.99997 0,819.99997 0,20 -15,37 -35,37 -20,0 -800,0 -820,0 -20,0 -35,-17 -35,-37 0,-20 0,-803.5 0,-820 z"
       id="path3017"
       inkscape:connector-curvature="0"
       sodipodi:nodetypes="sssssssss" />
    <path
       style="fill:none;stroke:#ffffff;stroke-width:6;stroke-linecap:butt;stroke-linejoin:miter;stroke-miterlimit:4;stroke-opacity:0.50196081;stroke-dasharray:none"
       d="m 3,192.36218 c 0,-19.9554 17,-37 37,-37 20,0 800,0 820,0 20,0 37,17 37,37 0,20 0,800 0,820 0,20 -17,37 -37,37 -20,0 -800,0 -820,0 -20,0 -37,-17 -37,-37 0,-20 0,-803.5 0,-820 z"
       id="path3017-8"
       inkscape:connector-curvature="0"
       sodipodi:nodetypes="sssssssss" />
    <path
       sodipodi:nodetypes="sssssssss"
       inkscape:connector-curvature="0"
       id="path3753"
       d="m 3,192.36218 c 0,-19.9554 17,-37 37,-37 20,0 800,0 820,0 20,0 37,17 37,37 0,20 0,800 0,820 0,20 -17,37 -37,37 -20,0 -800,0 -820,0 -20,0 -37,-17 -37,-37 0,-20 0,-803.5 0,-820 z"
       style="fill:#e0e1e2;stroke:#ffffff;stroke-width:6;stroke-linecap:butt;stroke-linejoin:miter;stroke-miterlimit:4;stroke-opacity:0.50196081000000004;stroke-dasharray:none;fill-opacity:1" />
  </g>
</svg>
