<?xml version="1.0" encoding="utf-8" standalone="no"?>
<svg version="1.1" width="900" height="900" xmlns="http://www.w3.org/2000/svg">
  <rect style="fill:none;opacity:0" width="900" height="900"/>
  <path style="fill:none;stroke:#ffffff;stroke-width:6;stroke-opacity:0.5" d="M 3,40 C 3,20 20,3 40,3 c 20,0 800,0 820,0 20,0 37,17 37,37 0,20 0,800 0,820 0,20 -17,37 -37,37 -20,0 -800,0 -820,0 -20,0 -37,-17 -37,-37 C 3,840 3,56.5 3,40 z"/>
  <path style="fill:#e0e1e2;stroke:#ffffff;stroke-width:6;stroke-opacity:0.5" d="M 3,40 C 3,20 20,3 40,3 c 20,0 800,0 820,0 20,0 37,17 37,37 0,20 0,800 0,820 0,20 -17,37 -37,37 -20,0 -800,0 -820,0 -20,0 -37,-17 -37,-37 C 3,840 3,56.5 3,40 z"/>
</svg>
